<svg xmlns="http://www.w3.org/2000/svg" viewBox="0 0 1800 1200" role="img" aria-label="Accessories editorial scene">
  <defs>
    <linearGradient id="bg" x1="0" y1="0" x2="1" y2="1">
      <stop offset="0" stop-color="#e1dbd2"/>
      <stop offset=".55" stop-color="#b7aa9b"/>
      <stop offset="1" stop-color="#6c5948"/>
    </linearGradient>
    <linearGradient id="bag" x1="0" y1="0" x2="0" y2="1">
      <stop offset="0" stop-color="#5b3b28"/>
      <stop offset="1" stop-color="#1e1713"/>
    </linearGradient>
    <filter id="shadow" x="-20%" y="-20%" width="140%" height="140%">
      <feDropShadow dx="0" dy="42" stdDeviation="38" flood-color="#2a211b" flood-opacity=".32"/>
    </filter>
  </defs>
  <rect width="1800" height="1200" fill="url(#bg)"/>
  <circle cx="360" cy="300" r="220" fill="#fff8ef" opacity=".2"/>
  <circle cx="1380" cy="880" r="310" fill="#322721" opacity=".14"/>
  <g filter="url(#shadow)">
    <path d="M670 472h460l70 430H600l70-430z" fill="url(#bag)"/>
    <path d="M775 476c12-136 68-204 125-204s113 68 125 204" fill="none" stroke="#2a211d" stroke-width="34" stroke-linecap="round"/>
    <path d="M746 552h308" stroke="#d9c6ad" stroke-width="14" stroke-linecap="round" opacity=".72"/>
    <rect x="744" y="630" width="312" height="154" rx="18" fill="#c9aa83" opacity=".26"/>
    <rect x="804" y="684" width="192" height="28" rx="14" fill="#f2e5d3" opacity=".58"/>
  </g>
  <g opacity=".55">
    <rect x="238" y="704" width="320" height="174" rx="26" fill="#2b2420"/>
    <rect x="1230" y="304" width="324" height="202" rx="28" fill="#ede6dd"/>
    <path d="M1268 385h244M278 782h236" stroke="#8d7761" stroke-width="18" stroke-linecap="round"/>
  </g>
</svg>
