<svg xmlns="http://www.w3.org/2000/svg" viewBox="0 0 1800 1200" role="img" aria-label="Editorial fashion scene">
  <defs>
    <linearGradient id="bg" x1="0" y1="0" x2="1" y2="1">
      <stop offset="0" stop-color="#d6d0c8"/>
      <stop offset=".48" stop-color="#b7aea4"/>
      <stop offset="1" stop-color="#786f66"/>
    </linearGradient>
    <linearGradient id="cloth" x1="0" y1="0" x2="0" y2="1">
      <stop offset="0" stop-color="#f9f4ec"/>
      <stop offset="1" stop-color="#cdbda9"/>
    </linearGradient>
    <filter id="soft" x="-20%" y="-20%" width="140%" height="140%">
      <feDropShadow dx="0" dy="40" stdDeviation="36" flood-color="#3d352e" flood-opacity=".25"/>
    </filter>
  </defs>
  <rect width="1800" height="1200" fill="url(#bg)"/>
  <circle cx="1420" cy="260" r="230" fill="#eee8df" opacity=".24"/>
  <circle cx="390" cy="950" r="310" fill="#554a42" opacity=".16"/>
  <g filter="url(#soft)">
    <path d="M785 250c24 68 72 110 142 110s118-42 142-110l74 23-62 214 88 430H685l88-430-62-214 74-23z" fill="url(#cloth)"/>
    <path d="M790 530h274l49 308H741l49-308z" fill="#2d2b2a" opacity=".82"/>
    <path d="M818 277c35 42 70 62 109 62s75-20 109-62" fill="none" stroke="#8d7b68" stroke-width="12" stroke-linecap="round"/>
    <path d="M742 918h371" stroke="#fbf8f2" stroke-width="18" stroke-linecap="round" opacity=".68"/>
  </g>
  <g opacity=".55">
    <rect x="214" y="194" width="286" height="690" rx="143" fill="#eee6dc"/>
    <rect x="1300" y="462" width="260" height="422" rx="130" fill="#332f2b"/>
    <path d="M236 690c120-32 220-24 300 24" fill="none" stroke="#71665c" stroke-width="18" stroke-linecap="round"/>
  </g>
</svg>
