<svg xmlns="http://www.w3.org/2000/svg" viewBox="0 0 1800 1200" role="img" aria-label="Menswear editorial scene">
  <defs>
    <linearGradient id="bg" x1="0" y1="0" x2="1" y2="1">
      <stop offset="0" stop-color="#cec7bd"/>
      <stop offset=".5" stop-color="#91877c"/>
      <stop offset="1" stop-color="#34302e"/>
    </linearGradient>
    <linearGradient id="jacket" x1="0" y1="0" x2="0" y2="1">
      <stop offset="0" stop-color="#4d4944"/>
      <stop offset="1" stop-color="#171615"/>
    </linearGradient>
    <filter id="shadow" x="-20%" y="-20%" width="140%" height="140%">
      <feDropShadow dx="0" dy="36" stdDeviation="34" flood-color="#17120e" flood-opacity=".32"/>
    </filter>
  </defs>
  <rect width="1800" height="1200" fill="url(#bg)"/>
  <path d="M0 768c240-116 522-148 846-96 332 54 652 16 954-112v640H0z" fill="#f3efe9" opacity=".14"/>
  <g filter="url(#shadow)">
    <path d="M742 270h316l90 142-86 520H738l-86-520 90-142z" fill="url(#jacket)"/>
    <path d="M832 288h136l40 156-108 126-108-126 40-156z" fill="#f5eee6"/>
    <path d="M734 300l164 272-178 94-78-254 92-112zM1066 300L902 572l178 94 78-254-92-112z" fill="#2c2926"/>
    <path d="M900 590v330" stroke="#d8cabb" stroke-width="10" opacity=".55"/>
    <circle cx="942" cy="670" r="9" fill="#c8b8a6"/>
    <circle cx="942" cy="752" r="9" fill="#c8b8a6"/>
  </g>
  <g opacity=".45">
    <rect x="190" y="250" width="330" height="610" rx="165" fill="#f1ebe4"/>
    <rect x="1290" y="190" width="300" height="760" rx="150" fill="#221f1d"/>
  </g>
</svg>
